<svg xmlns="http://www.w3.org/2000/svg" viewBox="0 0 410 404">
  <defs>
    <linearGradient id="a" x1="0" x2="1" y1="0" y2="1">
      <stop stop-color="#41d1ff" offset="0" />
      <stop stop-color="#bd34fe" offset="1" />
    </linearGradient>
    <linearGradient id="b" x1="1" x2="0" y1="0" y2="1">
      <stop stop-color="#ffea83" offset="0" />
      <stop stop-color="#ffdd35" offset="0.5" />
      <stop stop-color="#ffa800" offset="1" />
    </linearGradient>
  </defs>
  <path fill="url(#a)" d="M399 52 215 388c-7 13-25 13-32 0L11 52c-8-14 4-31 20-28l178 30a18 18 0 0 0 6 0l164-30c16-3 28 14 20 28Z" />
  <path fill="url(#b)" d="m283 34-85 160a9 9 0 0 1-16 0L97 34a9 9 0 0 1 8-13l82 11a9 9 0 0 0 2 0l84-11a9 9 0 0 1 10 13Z" />
</svg>
